{"accessors" : [{"bufferView" : 0, "byteOffset" : 0, "componentType" : 5125, "count" : 76734, "type" : "SCALAR", "max" : [76733], "min" : [0]}, {"bufferView" : 1, "byteOffset" : 0, "componentType" : 5126, "count" : 76734, "type" : "VEC3", "max" : [25, 50, 50], "min" : [0, -50, -50], "name" : "POSITION"}, {"bufferView" : 1, "byteOffset" : 12, "componentType" : 5126, "count" : 76734, "type" : "VEC3", "max" : [1.0000044107437134, 0.9997546076774597, 0.9997546076774597], "min" : [-1.0000044107437134, -0.9997546076774597, -0.9990532398223877], "name" : "NORMAL"}], "asset" : {"generator" : "Aspose.3D 23.4.0", "version" : "2.0"}, "buffers" : [{"uri" : "data:application/octet-stream;base64,", "byteLength" : 2148560}], "bufferViews" : [{"buffer" : 0, "byteOffset" : 0, "byteLength" : 306936, "target" : 34963}, {"buffer" : 0, "byteOffset" : 306940, "byteLength" : 1841616, "byteStride" : 24, "target" : 34962}], "meshes" : [{"primitives" : [{"attributes" : {"POSITION" : 1, "NORMAL" : 2}, "indices" : 0, "mode" : 4}], "name" : "PARTassembly"}], "nodes" : [{"mesh" : 0, "name" : "PARTassembly"}], "scene" : 0, "scenes" : [{"nodes" : [0]}]}